<?xml version="1.0" encoding="UTF-8"?>
<svg xmlns="http://www.w3.org/2000/svg" version="1.1" viewBox="0 0 26.17 26.17">
  <defs>
    <style>
      .cls-1 {
        fill: #ba9068;
      }

      .cls-2 {
        fill: #231f20;
      }
    </style>
  </defs>
  <!-- Generator: Adobe Illustrator 28.7.1, SVG Export Plug-In . SVG Version: 1.2.0 Build 142)  -->
  <g>
    <g id="Layer_1">
      <path class="cls-1" d="M24.54,26.17H1.64c-.9,0-1.64-.73-1.64-1.64V1.64C0,.73.73,0,1.64,0h22.9c.9,0,1.64.73,1.64,1.64v22.9c0,.9-.73,1.64-1.64,1.64"/>
      <g>
        <path class="cls-2" d="M5.87,11.15h2.32v4.52c0,2.28,1.59,4,4.87,5.24,3.3-1.25,4.9-2.96,4.9-5.24v-4.52h2.32c-.16-2.13-1.75-3.1-3.24-3.1h-2.68l.91-2.62c-1.4-.28-2.88-.28-4.39,0l.9,2.61h-2.68c-.72.03-3.05.33-3.24,3.1M13.07,21.68l-.12-.05c-3.68-1.36-5.47-3.32-5.47-5.96v-3.8h-2.34v-.36c0-2.98,2.05-4.12,3.96-4.19h1.68l-.84-2.43.4-.09c1.91-.41,3.76-.41,5.5,0l.39.09-.84,2.42h1.67c1.97,0,3.97,1.44,3.97,4.19v.36h-2.34v3.8c0,2.64-1.8,4.59-5.5,5.96l-.12.05Z"/>
        <path class="cls-2" d="M13.76,18.55l-.24-.68c1.68-.59,2.43-1.85,2.23-3.77l.72-.08c.25,2.26-.69,3.83-2.71,4.53"/>
        <rect class="cls-2" x="5.76" y="11.14" width="14.68" height=".72"/>
      </g>
    </g>
  </g>
</svg>