<?xml version="1.0" encoding="UTF-8"?>
<svg xmlns="http://www.w3.org/2000/svg" version="1.1" viewBox="0 0 26.17 26.17">
  <defs>
    <style>
      .cls-1 {
        fill: #ba9068;
      }

      .cls-2 {
        fill: #231f20;
      }
    </style>
  </defs>
  <!-- Generator: Adobe Illustrator 28.7.1, SVG Export Plug-In . SVG Version: 1.2.0 Build 142)  -->
  <g>
    <g id="Layer_1">
      <path class="cls-1" d="M24.54,26.17H1.64c-.9,0-1.64-.73-1.64-1.64V1.64C0,.73.73,0,1.64,0h22.9c.9,0,1.64.73,1.64,1.64v22.9c0,.9-.73,1.64-1.64,1.64"/>
      <path class="cls-2" d="M23.13,13.79c-1.36-.61-.92-1.42-1.55-1.77-.45-.25-.89-.45-1.42-.72-.02-.01-.06-.06-.06-.16-.02-.44-.22-.88-.62-.96-.31-.07-.53.03-.8.32-.05.05-.08.06-.15.03-1.33-.75-3.05-1.87-6.04-2.19-3.83-.42-7.09,1.18-8.56,4.1-.79,1.57-.86,3.87-1.09,5.22-.03.17.03.26.2.26h3.46c.08,0,.14-.09.1-.15l-.52-.79s-.03-.11,0-.16l.77-1.08s.06-.03.07,0l.81,2.07c.05.07.13.12.23.12h2.91c.08,0,.14-.09.1-.15l-.54-.82s-.03-.06-.04-.09l-.28-1.02s0-.07.06-.06c.66.1,1.29.16,2.15.2.04,0,.06.02.05.08-.05.35-.11,1.23-.16,1.6-.03.22.07.25.19.25h3.35c.08,0,.14-.08.1-.14l-.51-.77s-.03-.09-.01-.14l.52-1.07s.06-.02.07,0l1.33,2.01c.05.07.13.12.23.12h2.72c.08,0,.14-.09.1-.15,0,0-.61-.96-.67-1.05-.36-.58-.96-1.56-.96-1.56-.04-.08,0-.14.1-.11,1.38.36,3.25.39,3.85-.02.49-.33,1-1.01.52-1.23"/>
    </g>
  </g>
</svg>