<?xml version="1.0" encoding="UTF-8"?>
<svg xmlns="http://www.w3.org/2000/svg" version="1.1" viewBox="0 0 26.17 26.17">
  <defs>
    <style>
      .cls-1 {
        fill: #ba9068;
      }

      .cls-2 {
        fill: #231f20;
      }
    </style>
  </defs>
  <!-- Generator: Adobe Illustrator 28.7.1, SVG Export Plug-In . SVG Version: 1.2.0 Build 142)  -->
  <g>
    <g id="Layer_1">
      <path class="cls-1" d="M24.54,26.17H1.64c-.9,0-1.64-.73-1.64-1.64V1.64C0,.73.73,0,1.64,0h22.9c.9,0,1.64.73,1.64,1.64v22.9c0,.9-.73,1.64-1.64,1.64"/>
      <g>
        <path class="cls-2" d="M7.7,20h1.99c4.85,0,8.79-3.94,8.79-8.79v-5.05h-1.99c-4.85,0-8.79,3.94-8.79,8.79v5.05ZM9.69,20.72h-2.71v-5.77c0-5.24,4.27-9.51,9.51-9.51h2.71v5.77c0,5.24-4.27,9.51-9.51,9.51"/>
        <path class="cls-2" d="M7.59,20.62l-.52-.51c4.75-4.84,8.92-10.12,11.45-14.49l.62.36c-2.55,4.41-6.77,9.74-11.56,14.63"/>
      </g>
    </g>
  </g>
</svg>