<?xml version="1.0" encoding="UTF-8"?>
<svg xmlns="http://www.w3.org/2000/svg" version="1.1" viewBox="0 0 26.17 26.17">
  <defs>
    <style>
      .cls-1 {
        fill: #ba9068;
      }

      .cls-2 {
        fill: #231f20;
      }
    </style>
  </defs>
  <!-- Generator: Adobe Illustrator 28.7.1, SVG Export Plug-In . SVG Version: 1.2.0 Build 142)  -->
  <g>
    <g id="Layer_1">
      <path class="cls-1" d="M24.54,26.17H1.64c-.9,0-1.64-.73-1.64-1.64V1.64C0,.73.73,0,1.64,0h22.9c.9,0,1.64.73,1.64,1.64v22.9c0,.9-.73,1.64-1.64,1.64"/>
      <g>
        <polygon class="cls-2" points="6.89 17.32 3.74 17.32 3.74 6.06 19.64 6.06 19.64 9.21 18.92 9.21 18.92 6.78 4.46 6.78 4.46 16.6 6.89 16.6 6.89 17.32"/>
        <path class="cls-2" d="M7.25,19.39h14.46v-9.81H7.25v9.81ZM22.44,20.11H6.53v-11.26h15.91v11.26Z"/>
        <polygon class="cls-2" points="19.64 18.25 16.46 18.25 16.46 17.53 18.39 17.53 16.81 14.79 15.82 16.51 15.19 16.15 16.81 13.35 19.64 18.25"/>
        <path class="cls-2" d="M10.58,17.53h5.13l-2.56-4.44-2.57,4.44ZM16.96,18.25h-7.63l3.82-6.61,3.81,6.61Z"/>
        <path class="cls-2" d="M17.23,12.36h-.72c0-.37-.3-.67-.67-.67s-.67.3-.67.67h-.72c0-.77.62-1.39,1.39-1.39s1.39.62,1.39,1.39"/>
        <path class="cls-2" d="M19.29,12.36h-.72c0-.37-.3-.67-.67-.67s-.67.3-.67.67h-.72c0-.77.62-1.39,1.39-1.39s1.39.62,1.39,1.39"/>
      </g>
    </g>
  </g>
</svg>