<?xml version="1.0" encoding="UTF-8"?>
<svg xmlns="http://www.w3.org/2000/svg" version="1.1" viewBox="0 0 26.17 26.17">
  <defs>
    <style>
      .cls-1 {
        fill: #ba9068;
      }

      .cls-2 {
        fill: #231f20;
      }
    </style>
  </defs>
  <!-- Generator: Adobe Illustrator 28.7.1, SVG Export Plug-In . SVG Version: 1.2.0 Build 142)  -->
  <g>
    <g id="Layer_1">
      <path class="cls-1" d="M24.54,26.17H1.64c-.9,0-1.64-.73-1.64-1.64V1.64C0,.73.73,0,1.64,0h22.9c.9,0,1.64.73,1.64,1.64v22.9c0,.9-.73,1.64-1.64,1.64"/>
      <g>
        <path class="cls-2" d="M10.17,19.7h6.82l2.81-4.77-1.08-4.68-4-3.71-5.85,1.35-2.52,4.96.13,3.36,3.7,3.5ZM17.39,20.42h-7.51l-4.12-3.9-.15-3.84,2.76-5.42,6.55-1.51,4.44,4.13,1.19,5.18-3.17,5.37Z"/>
        <polygon class="cls-2" points="16.82 20.37 11.03 17.02 10.99 16.89 8.27 7.68 8.96 7.47 11.64 16.54 17.18 19.75 16.82 20.37"/>
      </g>
    </g>
  </g>
</svg>