<?xml version="1.0" encoding="UTF-8"?>
<svg xmlns="http://www.w3.org/2000/svg" version="1.1" viewBox="0 0 26.17 26.17">
  <defs>
    <style>
      .cls-1 {
        fill: #ba9068;
      }

      .cls-2 {
        fill: #231f20;
      }
    </style>
  </defs>
  <!-- Generator: Adobe Illustrator 28.7.1, SVG Export Plug-In . SVG Version: 1.2.0 Build 142)  -->
  <g>
    <g id="Layer_1">
      <path class="cls-1" d="M24.54,26.17H1.64c-.9,0-1.64-.73-1.64-1.64V1.64C0,.73.73,0,1.64,0h22.9c.9,0,1.64.73,1.64,1.64v22.9c0,.9-.73,1.64-1.64,1.64"/>
      <polygon class="cls-2" points="19.46 9.51 16.32 7.02 16.32 8.79 13.13 8.79 13.13 10.22 16.32 10.22 16.32 11.99 19.46 9.51"/>
      <path class="cls-2" d="M3.46,11.97l4.68,2.71,4.68-2.71v-5.41l-4.68-2.7-4.68,2.7v5.41ZM8.15,15.51l-5.41-3.12v-6.24l5.41-3.12,5.41,3.12v6.24l-5.41,3.12Z"/>
      <polygon class="cls-2" points="8.15 9.68 2.92 6.66 3.28 6.04 8.15 8.85 13.01 6.04 13.37 6.66 8.15 9.68"/>
      <rect class="cls-2" x="7.79" y="9.27" width=".72" height="5.83"/>
      <path class="cls-2" d="M9.88,20.57l3.03,1.75,3.03-1.75v-3.5l-3.03-1.75-3.03,1.75v3.5ZM12.91,23.15l-3.75-2.16v-4.33l3.75-2.16,3.75,2.16v4.33l-3.75,2.16Z"/>
      <polygon class="cls-2" points="12.91 19.24 9.34 17.18 9.7 16.55 12.91 18.4 16.11 16.55 16.47 17.18 12.91 19.24"/>
      <rect class="cls-2" x="12.55" y="18.82" width=".72" height="3.91"/>
      <path class="cls-2" d="M16.65,20.57l3.03,1.75,3.03-1.75v-3.5l-3.03-1.75-3.03,1.75v3.5ZM19.68,23.15l-3.75-2.16v-4.33l3.75-2.16,3.75,2.16v4.33l-3.75,2.16Z"/>
      <polygon class="cls-2" points="19.68 19.24 16.11 17.18 16.47 16.55 19.68 18.4 22.89 16.55 23.25 17.18 19.68 19.24"/>
      <rect class="cls-2" x="19.32" y="18.82" width=".72" height="3.91"/>
    </g>
  </g>
</svg>