<?xml version="1.0" encoding="UTF-8"?>
<svg xmlns="http://www.w3.org/2000/svg" version="1.1" viewBox="0 0 13.45 15.37">
  <defs>
    <style>
      .cls-1 {
        fill: #a34d2f;
      }
    </style>
  </defs>
  <!-- Generator: Adobe Illustrator 28.7.1, SVG Export Plug-In . SVG Version: 1.2.0 Build 142)  -->
  <g>
    <g id="Layer_1">
      <path class="cls-1" d="M9.34,13.29c-.02.07-.12.07-.14,0l-1.57-5.46c-.05-.24.03-.46.38-.43l2.56.23c.09,0,.14.09.12.18l-1.36,5.48ZM13.1,3.21h-.98c-.16,0-.31.11-.35.27l-.53,2.15s-.05.07-.09.05c-.43-.17-1.84-.73-3.63-1.31-.03,0-.05-.04-.04-.07.08-.48.14-1.2.17-1.86,0-.03.03-.06.06-.06h2.23c.14,0,.27-.11.31-.27l.1-.38c.03-.12-.05-.25-.15-.25h-2.43s-.07-.04-.07-.07c.02-1.09-.12-1.47-.95-1.39-2.93.27-3.4,1.33-3.45,2.37,0,.17-.02.43-.02.71,0,.04-.04.08-.09.07-.5-.11-1-.22-1.5-.31C.89,2.7-.06,3.41,0,4.3l.11,3.84c0,.19.09.37.24.49l1.79,1.24s.04.05.03.08l-1.42,5.01c-.06.21.1.42.31.42h2.46c.13,0,.24-.07.29-.19l1.43-3.07c.03-.06.1-.06.13,0l1.48,3.08c.05.11.17.18.29.18h3.1c.16,0,.31-.11.35-.27l2.84-11.46c.06-.22-.11-.44-.35-.44"/>
    </g>
  </g>
</svg>