<?xml version="1.0" encoding="UTF-8"?>
<svg xmlns="http://www.w3.org/2000/svg" version="1.1" viewBox="0 0 15.92 17.19">
  <defs>
    <style>
      .cls-1 {
        fill: #231f20;
      }

      .cls-2 {
        fill: #823730;
      }

      .cls-3 {
        fill: #b54b32;
      }
    </style>
  </defs>
  <!-- Generator: Adobe Illustrator 28.7.1, SVG Export Plug-In . SVG Version: 1.2.0 Build 142)  -->
  <g>
    <g id="Layer_1">
      <g id="Layer_1-2" data-name="Layer_1">
        <g>
          <path class="cls-1" d="M.74,6.66h2.32v4.52c0,2.28,1.59,4,4.87,5.24,3.3-1.25,4.9-2.96,4.9-5.24v-4.52h2.32c-.16-2.13-1.75-3.1-3.24-3.1h-2.68l.91-2.62c-1.4-.28-2.88-.28-4.39,0l.9,2.61h-2.68c-.72.03-3.05.33-3.24,3.1M7.94,17.19l-.12-.05c-3.68-1.36-5.47-3.32-5.47-5.96v-3.8H0v-.36C0,4.04,2.06,2.9,3.97,2.83h1.68l-.84-2.43.4-.09c1.91-.41,3.76-.41,5.5,0l.39.09-.84,2.42h1.67c1.97,0,3.97,1.44,3.97,4.19v.36h-2.34v3.8c0,2.64-1.8,4.59-5.5,5.96l-.12.05h0Z"/>
          <path class="cls-1" d="M8.63,14.06l-.24-.68c1.68-.59,2.43-1.85,2.23-3.77l.72-.08c.25,2.26-.69,3.83-2.71,4.53"/>
          <rect class="cls-1" x=".63" y="6.65" width="14.68" height=".72"/>
        </g>
        <path class="cls-2" d="M0,7.38h2.34s11.21,0,11.21,0h2.34s.65-5.28-5.64-4.55l.84-2.42s-2.5-.88-6.29,0l.84,2.43S-.24,1.87,0,7.38Z"/>
        <path class="cls-3" d="M7.94,17.19s3.31-1.01,4.82-3.28c.77-1.15.8-1.85.8-3.66v-2.88H2.35s0,3.81,0,3.81c0,0-.24,2.41,2.08,4.14,1.88,1.4,3.51,1.87,3.51,1.87Z"/>
      </g>
    </g>
  </g>
</svg>