<?xml version="1.0" encoding="UTF-8"?>
<svg xmlns="http://www.w3.org/2000/svg" version="1.1" viewBox="0 0 20.9 16.6">
  <defs>
    <style>
      .cls-1 {
        fill: #fff;
      }

      .cls-2 {
        fill: #fec343;
      }
    </style>
  </defs>
  <!-- Generator: Adobe Illustrator 28.7.1, SVG Export Plug-In . SVG Version: 1.2.0 Build 142)  -->
  <g>
    <g id="Layer_1">
      <g id="Layer_1-2" data-name="Layer_1">
        <g>
          <path class="cls-1" d="M20.9,10.1c0-.3-.1-.5-.4-.7,0,0-.1-.1-.2-.1l-1.9-.6,1.5-1.1c.3-.2.4-.6.3-.9-.1-.4-.5-.6-.8-.6h-2c0,0,1-1.5,1-1.5.2-.3.2-.7,0-1-.2-.3-.6-.4-1-.3l-1.8.7.4-1.9c0-.4,0-.7-.4-.9-.3-.2-.7-.1-1,.1l-1.5,1.3-.3-1.9c0-.4-.3-.6-.7-.7-.4,0-.7.1-.9.4l-.9,1.7-.9-1.7c-.2-.3-.5-.5-.9-.4-.4,0-.6.3-.7.7l-.3,1.9-1.5-1.3c-.3-.2-.7-.3-1-.1s-.5.6-.4.9l.4,1.8-1.8-.7c-.3-.1-.7,0-1,.2-.2.3-.2.7,0,1l1,1.6h-2c-.4,0-.7.1-.8.5-.1.3,0,.7.3.9l1.5,1.1-1.9.6c-.4.1-.6.4-.6.8s.2.7.6.8l1.8.6-1.5,1c-.3.2-.4.6-.3.9.1.4.4.6.8.6h6.5l1.9,2.3c.1.2.4.3.6.3h0c.2,0,.4-.1.6-.3l1.9-2.3h6.5c.4,0,.7-.2.8-.6.1-.4,0-.7-.3-.9l-1.5-1,1.8-.6c.4-.1.6-.4.6-.8h0ZM20.1,10.3l-2.4.7c-.2,0-.3.3,0,.5l2,1.4c.2.1.1.5-.1.5h-6.8l-2.1,2.5c0,.1-.2.1-.3,0l-2.1-2.5H1.4c-.3,0-.4-.3-.1-.5l2-1.4c.2-.1.1-.4,0-.5l-2.4-.7c-.2,0-.2-.4,0-.5l2.5-.8c.2,0,.3-.3,0-.5l-2-1.5c-.2-.2-.1-.5.2-.5h2.6c.2.1.4,0,.2-.3l-1.4-2.1c-.1-.2,0-.5.3-.4l2.4.9c.2,0,.4,0,.4-.3l-.6-2.4c0-.2.2-.4.4-.2l1.9,1.7c.2.1.4,0,.5-.2l.3-2.5c0-.2.4-.3.5,0l1.2,2.2c.1.2.4.2.5,0l1.2-2.2c.1-.2.5-.2.5,0l.3,2.5c0,.2.3.3.4.2l1.9-1.7c.2-.2.5,0,.4.2l-.6,2.4c0,.2.2.4.4.3l2.4-1c.2,0,.5.2.3.4l-1.4,2.1c-.1.2,0,.4.2.4h2.6c.3-.1.4.2.2.3l-2,1.5c-.2.1-.1.4,0,.5l2.5.8h0c.2.1.2.4,0,.5Z"/>
          <path class="cls-2" d="M20.1,9.8l-2.5-.8c-.2,0-.3-.3,0-.5l2-1.5c.2-.2,0-.5-.2-.5h-2.6c-.2.1-.4,0-.2-.3l1.4-2.1c.1-.2,0-.5-.3-.4l-2.4.9c-.2,0-.4,0-.4-.3l.6-2.4c0-.2-.2-.4-.4-.2l-1.9,1.7c-.2.1-.4,0-.4-.2l-.3-2.5c0-.2-.4-.3-.5,0l-1.2,2.2c-.1.2-.4.2-.5,0l-1.2-2.2c-.1-.2-.5-.2-.5,0l-.3,2.5c0,.2-.3.3-.4.2l-1.9-1.7c-.2-.2-.5,0-.4.2l.6,2.4c0,.2-.2.4-.4.3l-2.4-1c-.2,0-.5.2-.3.4l1.4,2.1c.1.2,0,.4-.2.4H1.4c-.3-.1-.4.2-.2.3l2,1.5c.2.1.1.4,0,.5l-2.5.8c-.2,0-.2.4,0,.5l2.4.7c.2,0,.3.3,0,.5l-2,1.4c-.2.1-.1.5.1.5h6.8l2.1,2.5c0,.1.2.1.3,0l2.1-2.5h6.8c.3,0,.4-.3.1-.5l-2-1.4c-.2-.1-.1-.4,0-.5l2.4-.7c.2,0,.2-.4,0-.5"/>
        </g>
      </g>
    </g>
  </g>
</svg>