<?xml version="1.0" encoding="UTF-8"?>
<svg xmlns="http://www.w3.org/2000/svg" version="1.1" viewBox="0 0 20.47 15.94">
  <defs>
    <style>
      .cls-1 {
        fill: #fec343;
      }
    </style>
  </defs>
  <!-- Generator: Adobe Illustrator 28.7.1, SVG Export Plug-In . SVG Version: 1.2.0 Build 142)  -->
  <g>
    <g id="Layer_1">
      <path class="cls-1" d="M20.28,9.53l-2.54-.78c-.22-.07-.27-.34-.09-.48l2.12-1.57c.22-.16.09-.5-.18-.49l-2.66.12c-.23,0-.37-.23-.25-.42l1.43-2.19c.15-.22-.09-.5-.35-.4l-2.46.99c-.21.08-.43-.1-.38-.31l.58-2.53c.06-.26-.26-.44-.46-.26l-1.97,1.75c-.17.15-.44.05-.47-.17l-.35-2.57c-.04-.26-.4-.33-.53-.09l-1.23,2.3c-.11.2-.39.2-.5,0L8.76.15c-.13-.24-.49-.17-.53.09l-.35,2.57c-.03.22-.3.32-.47.17l-1.97-1.75c-.2-.18-.52,0-.46.26l.58,2.53c.05.22-.17.4-.38.31l-2.46-.99c-.25-.1-.49.17-.34.4l1.43,2.19c.12.19-.02.43-.25.42l-2.66-.12c-.28-.01-.4.33-.18.49l2.12,1.57c.18.13.13.41-.09.48l-2.54.78c-.26.08-.26.44,0,.52l2.51.77c.22.07.27.35.08.48l-2.08,1.45c-.22.16-.11.5.16.5h7.07s2.13,2.61,2.13,2.61c.09.1.24.1.33,0l2.13-2.61h7.06c.27,0,.38-.34.16-.5l-2.07-1.44c-.19-.13-.14-.42.08-.48l2.51-.77c.26-.08.26-.44,0-.52"/>
    </g>
  </g>
</svg>