<?xml version="1.0" encoding="UTF-8"?>
<svg xmlns="http://www.w3.org/2000/svg" version="1.1" viewBox="0 0 40.92 12.48">
  <defs>
    <style>
      .cls-1 {
        fill: #b6def3;
      }

      .cls-2 {
        fill: #996b4d;
      }

      .cls-3 {
        fill: #c18854;
      }

      .cls-4 {
        fill: #522b14;
      }

      .cls-5 {
        fill: #3799d3;
      }

      .cls-6 {
        fill: #dba36f;
      }
    </style>
  </defs>
  <!-- Generator: Adobe Illustrator 28.7.1, SVG Export Plug-In . SVG Version: 1.2.0 Build 142)  -->
  <g>
    <g id="Layer_1">
      <g id="Layer_1-2" data-name="Layer_1">
        <polygon class="cls-4" points="16.71 6.48 13.57 3.99 13.57 5.76 10.38 5.76 10.38 7.19 13.57 7.19 13.57 8.96 16.71 6.48"/>
        <g>
          <polygon class="cls-4" points="5.4 0 0 3.12 0 9.36 5.4 12.48 10.81 9.36 10.81 3.12 5.4 0"/>
          <polygon class="cls-2" points="5.4 0 0 3.12 5.41 6.26 10.81 3.12 5.4 0"/>
        </g>
        <g>
          <polygon class="cls-3" points="23.42 0 18.02 3.12 18.02 9.36 23.42 12.48 28.83 9.36 28.83 3.12 23.42 0"/>
          <polygon class="cls-6" points="23.42 0 18.02 3.12 23.43 6.26 28.83 3.12 23.42 0"/>
        </g>
        <g>
          <polygon class="cls-5" points="35.52 0 30.11 3.12 30.11 9.36 35.52 12.48 40.92 9.36 40.92 3.12 35.52 0"/>
          <polygon class="cls-1" points="35.52 0 30.11 3.12 35.53 6.26 40.92 3.12 35.52 0"/>
        </g>
      </g>
    </g>
  </g>
</svg>