<?xml version="1.0" encoding="UTF-8"?>
<svg xmlns="http://www.w3.org/2000/svg" version="1.1" viewBox="0 0 158.76 75.33">
  <defs>
    <style>
      .cls-1 {
        fill: #272626;
      }
    </style>
  </defs>
  <!-- Generator: Adobe Illustrator 28.7.1, SVG Export Plug-In . SVG Version: 1.2.0 Build 142)  -->
  <g>
    <g id="Layer_1">
      <path class="cls-1" d="M157.23,43.13c-10.51-4.76-7.13-11.1-12.03-13.81-3.48-1.93-6.89-3.56-11.02-5.62-.16-.09-.43-.45-.47-1.24-.18-3.44-1.69-6.86-4.81-7.53-2.45-.52-4.15.27-6.22,2.5-.35.39-.61.51-1.12.21-10.3-5.88-23.66-14.58-46.79-17.12C45.11-2.75,19.82,9.75,8.47,32.54,2.36,44.8,1.82,62.76.05,73.31c-.21,1.3.24,1.98,1.56,1.98l26.79.03c.62,0,1.08-.7.75-1.18l-4.03-6.18c-.24-.38-.26-.85-.01-1.23l5.98-8.47c.19-.23.47-.25.58,0l6.25,16.13c.38.58,1.03.92,1.79.92h22.51c.63,0,1.08-.7.77-1.18l-4.21-6.45c-.13-.2-.23-.43-.28-.68l-2.14-7.93c-.08-.24.06-.54.43-.49,5.15.78,10.02,1.29,16.67,1.55.34.01.47.14.4.65-.37,2.73-.83,9.61-1.26,12.46-.27,1.71.52,1.96,1.44,1.97l25.91.08c.63,0,1.08-.7.77-1.18l-3.94-6.03c-.21-.31-.24-.71-.1-1.05l4.05-8.34c.17-.18.45-.18.58,0l10.29,15.68c.38.58,1.04.92,1.79.92h21.07c.63,0,1.09-.7.77-1.18,0,0-4.73-7.52-5.17-8.22-2.84-4.5-7.43-12.16-7.43-12.16-.31-.61.02-1.1.75-.91,10.66,2.86,25.2,3.07,29.86-.11,3.79-2.59,7.78-7.92,4-9.63"/>
    </g>
  </g>
</svg>