<?xml version="1.0" encoding="UTF-8"?>
<svg xmlns="http://www.w3.org/2000/svg" version="1.1" viewBox="0 0 18.16 13.46">
  <defs>
    <style>
      .cls-1 {
        fill: #fff5eb;
      }

      .cls-2 {
        fill: #4c241c;
      }

      .cls-3 {
        fill: #da4628;
      }
    </style>
  </defs>
  <!-- Generator: Adobe Illustrator 28.7.1, SVG Export Plug-In . SVG Version: 1.2.0 Build 142)  -->
  <g>
    <g id="Layer_1">
      <g>
        <rect class="cls-2" width="15.34" height="10.64"/>
        <rect class="cls-3" x="2.82" y="2.82" width="15.34" height="10.64"/>
        <path class="cls-1" d="M13.17,6h-.54c0-.43-.35-.77-.77-.77s-.77.35-.77.77h-.53c0-.72.59-1.31,1.31-1.31s1.31.59,1.31,1.31"/>
        <path class="cls-1" d="M15.25,6h-.54c0-.43-.35-.77-.77-.77s-.77.35-.77.77h-.53c0-.72.59-1.31,1.31-1.31s1.31.59,1.31,1.31"/>
        <polygon class="cls-1" points="12.84 7.73 10.62 11.58 15.07 11.58 12.84 7.73"/>
        <polygon class="cls-1" points="9.14 6 5.91 11.58 12.36 11.58 9.14 6"/>
      </g>
    </g>
  </g>
</svg>