<?xml version="1.0" encoding="UTF-8"?>
<svg xmlns="http://www.w3.org/2000/svg" version="1.1" viewBox="0 0 330.94 336.91">
  <defs>
    <style>
      .cls-1 {
        fill: #da4628;
      }
    </style>
  </defs>
  <!-- Generator: Adobe Illustrator 28.7.1, SVG Export Plug-In . SVG Version: 1.2.0 Build 142)  -->
  <g>
    <g id="Layer_1">
      <path class="cls-1" d="M-451.5,64.22l49.64,180.1c2.2,7.97,9.43,13.51,17.7,13.54l203.12.87c8.94.04,16.61-6.33,18.22-15.13L-121.54,17.9c2.28-12.46-8.39-23.46-20.92-21.55l-294.04,44.73c-10.92,1.66-17.94,12.48-15.01,23.13Z"/>
      <g>
        <path class="cls-1" d="M.67,68.08l49.64,180.1c2.2,7.97,9.43,13.51,17.7,13.54l203.12.87c8.94.04,16.61-6.33,18.22-15.13l41.27-225.71c2.28-12.46-8.39-23.46-20.92-21.55L15.68,44.95c-10.92,1.66-17.94,12.48-15.01,23.13Z"/>
        <path class="cls-1" d="M144.87,247.62h52.67v79.94c0,5.16-4.19,9.35-9.35,9.35h-33.98c-5.16,0-9.35-4.19-9.35-9.35v-79.94h0Z"/>
      </g>
      <g>
        <path class="cls-1" d="M389.53,105.24l49.64,180.1c2.2,7.97,9.43,13.51,17.7,13.54l203.12.87c8.94.04,16.61-6.33,18.22-15.13l41.27-225.71c2.28-12.46-8.39-23.46-20.92-21.55l-294.04,44.73c-10.92,1.66-17.94,12.48-15.01,23.13Z"/>
        <path class="cls-1" d="M533.73,284.77h52.67v79.94c0,5.16-4.19,9.35-9.35,9.35h-33.98c-5.16,0-9.35-4.19-9.35-9.35v-79.94h0Z"/>
        <polygon class="cls-1" points="572.41 60.93 552.07 13.86 542.72 13.86 542.72 79.42 572.41 60.93"/>
        <path class="cls-1" d="M663.96-98.76s-6.72-11.77-26.89-14.01c-37.42-3.8-70.14,31.61-116.91,39.98-3.1.56-6.27.73-9.42.55-67.99-3.82-101.71-53.97-101.71-53.97,0,0,5.61,25.32,18.99,55.28.85,1.89,83.58,33.62,114.7,31.01-54.65,10.46-104.69-10.72-103.72-8.97,5.08,9.14,10.88,18.24,17.46,26.79,2.55,3.32,38.71,10.19,97.87,15.8-32.64,9.71-84.17,0-81.13,2.86,18.2,17.16,40.84,29.08,68.62,29.08,89.65,8.96,108.7-89.65,108.7-89.65,0,0,8.4-28.58,48.75-25.21,40.34,3.36-35.3-9.53-35.3-9.53ZM626.69-77.96c-4.35,0-7.88-3.53-7.88-7.88s3.53-7.88,7.88-7.88,7.88,3.53,7.88,7.88-3.53,7.88-7.88,7.88Z"/>
      </g>
      <g>
        <path class="cls-1" d="M-1073.2,105.24l49.64,180.1c2.2,7.97,9.43,13.51,17.7,13.54l203.12.87c8.94.04,16.61-6.33,18.22-15.13l41.27-225.71c2.28-12.46-8.39-23.46-20.92-21.55l-294.04,44.73c-10.92,1.66-17.94,12.48-15.01,23.13Z"/>
        <path class="cls-1" d="M-929,284.77h52.67v79.94c0,5.16-4.19,9.35-9.35,9.35h-33.98c-5.16,0-9.35-4.19-9.35-9.35v-79.94h0Z"/>
        <g>
          <path class="cls-1" d="M-1046.17,86l-16.95-39.2c-.89-2.07-2.93-3.4-5.18-3.4h0c-3.12,0-5.64,2.53-5.64,5.64v49.75c0,4.43,4.87,7.13,8.63,4.79l16.95-10.55c2.37-1.48,3.31-4.47,2.2-7.03Z"/>
          <path class="cls-1" d="M-952.69-69.23s-6.72-11.77-26.89-14.01c-37.42-3.8-70.14,31.61-116.91,39.98-3.1.56-6.27.73-9.42.55-67.99-3.82-101.71-53.97-101.71-53.97,0,0,5.61,25.32,18.99,55.28.85,1.89,83.58,33.62,114.7,31.01-54.65,10.46-104.69-10.72-103.72-8.97,5.08,9.14,10.88,18.24,17.46,26.79,2.55,3.32,38.71,10.19,97.87,15.8-32.64,9.71-84.17,0-81.13,2.86,18.2,17.16,40.84,29.08,68.62,29.08,89.65,8.96,108.7-89.65,108.7-89.65,0,0,8.4-28.58,48.75-25.21,40.34,3.36-35.3-9.53-35.3-9.53ZM-989.97-48.43c-4.35,0-7.88-3.53-7.88-7.88s3.53-7.88,7.88-7.88,7.88,3.53,7.88,7.88-3.53,7.88-7.88,7.88Z"/>
        </g>
        <g>
          <path class="cls-1" d="M-745.16,47.31l-16.15-37.36h-9.35v65.56l20.72-12.9c5.16-3.21,7.19-9.72,4.78-15.3Z"/>
          <path class="cls-1" d="M-649.41-102.67s-6.72-11.77-26.89-14.01c-37.42-3.8-70.14,31.61-116.91,39.98-3.1.56-6.27.73-9.42.55-67.99-3.82-101.71-53.97-101.71-53.97,0,0,5.61,25.32,18.99,55.28.85,1.89,83.58,33.62,114.7,31.01-54.65,10.46-104.69-10.72-103.72-8.97,5.08,9.14,10.88,18.24,17.46,26.79,2.55,3.32,38.71,10.19,97.87,15.8-32.64,9.71-84.17,0-81.13,2.86,18.2,17.16,40.84,29.08,68.62,29.08,89.65,8.96,108.7-89.65,108.7-89.65,0,0,8.4-28.58,48.75-25.21,40.34,3.36-35.3-9.53-35.3-9.53ZM-686.69-81.87c-4.35,0-7.88-3.53-7.88-7.88s3.53-7.88,7.88-7.88,7.88,3.53,7.88,7.88-3.53,7.88-7.88,7.88Z"/>
        </g>
      </g>
    </g>
  </g>
</svg>