<?xml version="1.0" encoding="UTF-8"?>
<svg xmlns="http://www.w3.org/2000/svg" version="1.1" viewBox="0 0 406.37 488.74">
  <defs>
    <style>
      .cls-1 {
        fill: #86774f;
      }

      .cls-2 {
        fill: #6b422b;
      }
    </style>
  </defs>
  <!-- Generator: Adobe Illustrator 28.7.1, SVG Export Plug-In . SVG Version: 1.2.0 Build 142)  -->
  <g>
    <g id="Layer_1">
      <g>
        <rect class="cls-2" x="138.42" y="53.23" width="129.54" height="53.23"/>
        <g>
          <path class="cls-1" d="M203.19,465.74c-99.35,0-180.19-80.83-180.19-180.18S103.83,105.37,203.19,105.37s180.18,80.83,180.18,180.19-80.83,180.18-180.18,180.18Z"/>
          <path class="cls-2" d="M203.19,128.37c41.99,0,81.46,16.35,111.15,46.04,29.69,29.69,46.04,69.16,46.04,111.15s-16.35,81.46-46.04,111.15c-29.69,29.69-69.16,46.04-111.15,46.04s-81.46-16.35-111.15-46.04c-29.69-29.69-46.04-69.16-46.04-111.15s16.35-81.46,46.04-111.15c29.69-29.69,69.16-46.04,111.15-46.04M203.19,82.37C90.97,82.37,0,173.33,0,285.55s90.97,203.18,203.19,203.18,203.18-90.97,203.18-203.18-90.97-203.18-203.18-203.18h0Z"/>
        </g>
        <rect class="cls-1" x="110.19" width="185.99" height="53.23"/>
      </g>
    </g>
  </g>
</svg>