<?xml version="1.0" encoding="UTF-8"?>
<svg xmlns="http://www.w3.org/2000/svg" version="1.1" viewBox="0 0 20.88 16.56">
  <defs>
    <style>
      .cls-1 {
        fill: #fff;
      }

      .cls-2 {
        fill: #fec343;
      }
    </style>
  </defs>
  <!-- Generator: Adobe Illustrator 28.7.1, SVG Export Plug-In . SVG Version: 1.2.0 Build 142)  -->
  <g>
    <g id="Layer_1">
      <g>
        <path class="cls-1" d="M20.88,10.06c0-.28-.13-.53-.35-.68-.06-.07-.15-.12-.24-.15l-1.86-.57,1.54-1.14c.3-.22.42-.6.3-.95-.12-.36-.45-.57-.84-.57l-1.96.09,1.03-1.59c.21-.3.19-.7-.04-.98-.24-.3-.63-.4-.99-.26l-1.82.73.42-1.85c.08-.36-.08-.72-.39-.91-.32-.19-.72-.15-1,.1l-1.47,1.31-.26-1.92c-.06-.36-.34-.64-.7-.71-.36-.06-.72.11-.9.43l-.92,1.72-.92-1.7c-.17-.32-.53-.49-.89-.43-.36.06-.64.35-.7.72l-.26,1.91-1.47-1.31c-.28-.25-.68-.29-1-.1-.32.19-.48.55-.39.91l.42,1.85-1.82-.73c-.35-.14-.74-.04-.98.25-.23.28-.25.68-.05.99l1.04,1.59-1.96-.09c-.38,0-.71.21-.84.57-.12.35,0,.73.3.95l1.54,1.14-1.86.57c-.36.11-.6.43-.6.8s.24.69.6.8l1.8.55-1.48,1.03c-.3.22-.42.6-.31.95.11.35.44.58.8.58h6.54l1.9,2.32c.15.17.37.26.59.26h0c.22,0,.44-.1.61-.29l1.88-2.3h6.53c.37,0,.69-.23.8-.58.11-.35-.01-.73-.32-.95l-1.46-1.01,1.8-.55c.36-.11.6-.43.6-.8ZM20.12,10.31l-2.42.74c-.21.06-.26.34-.08.46l2,1.39c.21.15.11.48-.15.48h-6.81l-2.05,2.52c-.09.1-.23.1-.32,0l-2.05-2.52H1.41c-.26,0-.37-.33-.15-.48l2.01-1.4c.18-.13.13-.4-.08-.46l-2.42-.74c-.25-.08-.25-.42,0-.5l2.45-.75c.21-.07.26-.34.09-.46l-2.04-1.51c-.21-.15-.1-.48.17-.47l2.56.12c.22,0,.36-.22.24-.4l-1.38-2.11c-.14-.22.09-.48.33-.39l2.37.95c.2.09.41-.09.37-.3l-.56-2.44c-.06-.25.25-.42.44-.25l1.9,1.69c.16.14.42.05.45-.16l.34-2.48c.04-.25.39-.32.51-.09l1.19,2.2c.11.19.38.19.48,0l1.19-2.22c.13-.23.47-.16.51.09l.34,2.48c.03.21.29.31.45.16l1.9-1.69c.19-.17.5,0,.44.25l-.56,2.44c-.05.2.16.38.37.3l2.37-.95c.25-.1.48.17.34.39l-1.38,2.11c-.12.18.02.4.24.4l2.56-.12c.26,0,.39.32.17.47l-2.04,1.51c-.17.13-.13.4.09.46l2.45.75v.03c.25.08.25.42,0,.5Z"/>
        <path class="cls-2" d="M20.12,9.78l-2.45-.75c-.21-.07-.26-.33-.09-.46l2.04-1.51c.21-.15.09-.48-.17-.47l-2.56.12c-.22,0-.36-.22-.24-.4l1.38-2.11c.14-.21-.09-.48-.34-.39l-2.37.95c-.2.08-.41-.1-.37-.3l.56-2.44c.06-.25-.25-.42-.44-.25l-1.9,1.69c-.16.14-.42.05-.45-.16l-.34-2.48c-.04-.25-.39-.32-.51-.09l-1.19,2.22c-.11.19-.38.19-.48,0l-1.19-2.2c-.13-.23-.47-.16-.51.09l-.34,2.48c-.03.21-.29.31-.45.16l-1.9-1.69c-.19-.17-.5,0-.44.25l.56,2.44c.05.21-.16.39-.37.3l-2.37-.95c-.24-.1-.47.16-.33.39l1.38,2.11c.12.18-.02.41-.24.4l-2.56-.12c-.27,0-.39.32-.17.47l2.04,1.51c.17.13.13.4-.09.46l-2.45.75c-.25.08-.25.42,0,.5l2.42.74c.21.07.26.34.08.46l-2.01,1.4c-.21.15-.11.48.15.48h6.82l2.05,2.52c.09.1.23.1.32,0l2.05-2.52h6.81c.26,0,.37-.33.15-.48l-2-1.39c-.18-.13-.13-.4.08-.46l2.42-.74c.25-.08.25-.42,0-.5"/>
      </g>
    </g>
  </g>
</svg>