<?xml version="1.0" encoding="UTF-8"?>
<svg xmlns="http://www.w3.org/2000/svg" version="1.1" viewBox="0 0 14.94 14.68">
  <defs>
    <style>
      .cls-1 {
        fill: #231f20;
      }

      .cls-2 {
        fill: #823730;
      }

      .cls-3 {
        fill: #b54b32;
      }
    </style>
  </defs>
  <!-- Generator: Adobe Illustrator 28.7.1, SVG Export Plug-In . SVG Version: 1.2.0 Build 142)  -->
  <g>
    <g id="Layer_1">
      <g id="Layer_1-2" data-name="Layer_1">
        <g id="Layer_1-2">
          <g>
            <path class="cls-1" d="M1.31,5.69h1.98v3.86c0,1.95,1.36,3.42,4.16,4.48,2.82-1.07,4.19-2.53,4.19-4.48v-3.86h1.98c-.14-1.82-1.49-2.65-2.77-2.65h-2.29l.78-2.24c-1.2-.24-2.46-.24-3.75,0l.77,2.23h-2.29c-.61.03-2.61.28-2.77,2.65M7.46,14.68l-.1-.04c-3.14-1.16-4.67-2.84-4.67-5.09v-3.25H.68v-.31c0-2.55,1.76-3.52,3.39-3.58h1.43l-.72-2.08.34-.08c1.63-.35,3.21-.35,4.7,0l.33.08-.72,2.07h1.43c1.68,0,3.39,1.23,3.39,3.58v.31h-2v3.25c0,2.25-1.54,3.92-4.7,5.09l-.1.04h0Z"/>
            <path class="cls-1" d="M8.05,12.01l-.2-.58c1.43-.5,2.08-1.58,1.9-3.22l.61-.07c.21,1.93-.59,3.27-2.31,3.87"/>
            <rect class="cls-1" x="1.22" y="5.68" width="12.54" height=".61"/>
          </g>
          <path class="cls-2" d="M.68,6.3h13.57s.56-4.51-4.82-3.89l.72-2.07s-2.14-.75-5.37,0l.72,2.08S.47,1.6.68,6.3Z"/>
          <path class="cls-3" d="M7.46,14.68s2.83-.86,4.12-2.8c.66-.98.68-1.58.68-3.13v-2.46H2.69v3.25s-.2,2.06,1.78,3.54c1.61,1.2,3,1.6,3,1.6Z"/>
        </g>
      </g>
    </g>
  </g>
</svg>